<svg xmlns="http://www.w3.org/2000/svg" viewBox="0 0 560 120" width="560" height="120" role="img" aria-label="Dalboviken logotyp"><style><![CDATA[@import url('https://fonts.googleapis.com/css2?family=Inter:wght@400&display=swap');.wm{font-family:'Inter',-apple-system,BlinkMacSystemFont,sans-serif;font-size:24px;font-weight:400;letter-spacing:0.16em;fill:#1C1C1E;}]]></style><svg x="20" y="20" width="80" height="80" viewBox="0 0 512 512"><circle cx="256" cy="256" r="208" stroke="#111111" stroke-width="22" fill="none"/><polygon points="256,256 256,140 306,198" fill="#E8E8E8"/><polygon points="256,256 306,198 356,256" fill="#888888"/><polygon points="256,256 356,256 306,314" fill="#444444"/><polygon points="256,256 306,314 256,372" fill="#111111"/><polygon points="256,256 256,372 206,314" fill="#2A2A2A"/><polygon points="256,256 206,314 156,256" fill="#666666"/><polygon points="256,256 156,256 206,198" fill="#C8C8C8"/><polygon points="256,256 206,198 256,140" fill="#F0F0F0"/><polygon points="256,140 356,256 256,372 156,256" fill="none" stroke="#111111" stroke-width="1.5"/></svg><line x1="118" y1="28" x2="118" y2="92" stroke="rgba(28,28,30,0.15)" stroke-width="1"/><text class="wm" x="138" y="68">DALBOVIKEN</text></svg>