<svg xmlns="http://www.w3.org/2000/svg" viewBox="0 0 512 512" width="512" height="512" role="img" aria-label="Dalboviken logotyp"><circle cx="256" cy="256" r="208" stroke="#FFFFFF" stroke-width="22" fill="none"/><polygon points="256,256 256,140 306,198" fill="#F0F0F0"/><polygon points="256,256 306,198 356,256" fill="#AAAAAA"/><polygon points="256,256 356,256 306,314" fill="#666666"/><polygon points="256,256 306,314 256,372" fill="#EEEEEE"/><polygon points="256,256 256,372 206,314" fill="#999999"/><polygon points="256,256 206,314 156,256" fill="#BBBBBB"/><polygon points="256,256 156,256 206,198" fill="#DDDDDD"/><polygon points="256,256 206,198 256,140" fill="#FFFFFF"/><polygon points="256,140 356,256 256,372 156,256" fill="none" stroke="rgba(255,255,255,0.2)" stroke-width="1.5"/></svg>